<?xml version="1.0" encoding="UTF-8"?>
<svg width="1270px" height="336px" fill="#F3F7FD" viewBox="0 0 1270 336" version="1.1" xmlns="http://www.w3.org/2000/svg" xmlns:xlink="http://www.w3.org/1999/xlink">
    <!-- Generator: sketchtool 49 (51002) - http://www.bohemiancoding.com/sketch -->
    <title>E9B377A1-232F-4466-9C35-D74D7817CE9B@1x</title>
    <desc>Created with sketchtool.</desc>
    <defs></defs>
    <g id="Components" stroke="none" stroke-width="1" fill="none" fill-rule="evenodd" opacity="0.5">
        <g id="Web-Components" transform="translate(-485.000000, -1483.000000)" stroke="#E1ECF8" stroke-width="2">
            <g id="Pull-Quote---Full-Width" transform="translate(485.000000, 1483.000000)">
                <g id="image-testimonial-background" transform="translate(-623.000000, -87.000000)">
                    <g id="Page-1" transform="translate(1547.000000, 0.000000)">
                        <path d="M288,344 L300.767,344" id="Stroke-43" stroke-linecap="round"></path>
                        <path d="M293,348 L305.768,348" id="Stroke-45" stroke-linecap="round"></path>
                        <path d="M293,352 L305.768,352" id="Stroke-47" stroke-linecap="round"></path>
                        <path d="M297,356 L309.767,356" id="Stroke-49" stroke-linecap="round"></path>
                        <path d="M297,360 L309.767,360" id="Stroke-51" stroke-linecap="round"></path>
                        <path d="M288,364 L300.767,364" id="Stroke-53" stroke-linecap="round"></path>
                        <path d="M288,368 L300.767,368" id="Stroke-55" stroke-linecap="round"></path>
                        <path d="M289,220 L301.767,220" id="Stroke-99" stroke-linecap="round"></path>
                        <path d="M294,224 L306.767,224" id="Stroke-101" stroke-linecap="round"></path>
                        <path d="M294,228 L306.767,228" id="Stroke-103" stroke-linecap="round"></path>
                        <path d="M298,231 L310.767,231" id="Stroke-105" stroke-linecap="round"></path>
                        <path d="M298,235 L310.767,235" id="Stroke-107" stroke-linecap="round"></path>
                        <path d="M289,239 L301.767,239" id="Stroke-109" stroke-linecap="round"></path>
                        <path d="M289,243 L301.767,243" id="Stroke-111" stroke-linecap="round"></path>
                        <path d="M368.544,270 L308.012,270 C305.796,270 304,271.796 304,274.012 L304,311.624 L372.557,311.624 L372.557,274.012 C372.557,271.796 370.76,270 368.544,270 Z" id="Stroke-141" stroke-linecap="round" stroke-linejoin="round"></path>
                        <path d="M365.757,275 L311.006,275 C309.899,275 309,275.898 309,277.006 L309,311.727 L367.763,311.727 L367.763,277.006 C367.763,275.898 366.865,275 365.757,275 Z" id="Stroke-143"></path>
                        <path d="M377.348,312 L301.003,312 C300.45,312 300,312.449 300,313.003 L300,313.701 C300,315.917 301.797,317.713 304.013,317.713 L374.339,317.713 C376.555,317.713 378.351,315.917 378.351,313.701 L378.351,313.003 C378.351,312.449 377.902,312 377.348,312 Z" id="Stroke-145" stroke-linecap="round" stroke-linejoin="round"></path>
                        <path d="M345.69,312 L345.69,312.257 C345.69,313.18 344.942,313.929 344.018,313.929 L332.671,313.929 C331.748,313.929 331,313.18 331,312.257 L331,312" id="Stroke-147" stroke-linecap="round" stroke-linejoin="round"></path>
                        <path d="M328,280 L347.17,280" id="Stroke-149" stroke-linecap="round"></path>
                        <path d="M319,280 L324.344,280" id="Stroke-151" stroke-linecap="round"></path>
                        <path d="M361.542,179.485 L361.542,197.624 L430.099,197.624 L430.099,160.012 C430.099,157.797 428.303,156 426.087,156 L208,156" id="Stroke-189" stroke-linecap="round" stroke-linejoin="round"></path>
                        <path d="M281.274,93 L281.274,249.742 L340.038,249.742 L340.038,215.021 C340.038,213.914 339.139,213.016 338.031,213.016 L81,213.016" id="Stroke-197" stroke-linecap="round" stroke-linejoin="round"></path>
                        <path d="M349.347,250 L273.003,250 C272.449,250 272,250.449 272,251.003 L272,251.701 C272,253.917 273.796,255.713 276.012,255.713 L346.338,255.713 C348.554,255.713 350.35,253.917 350.35,251.701 L350.35,251.003 C350.35,250.449 349.902,250 349.347,250 Z" id="Stroke-199" stroke-linecap="round" stroke-linejoin="round"></path>
                        <path d="M317.691,250 L317.691,250.257 C317.691,251.18 316.942,251.929 316.019,251.929 L304.671,251.929 C303.749,251.929 303,251.18 303,250.257 L303,250" id="Stroke-201" stroke-linecap="round" stroke-linejoin="round"></path>
                        <path d="M119,416.759 L419.088,416.759 C420.546,416.759 421.728,415.577 421.728,414.119 L421.728,413.66 C421.728,413.296 421.432,413 421.067,413 L127.625,413" id="Stroke-237" stroke-linecap="round" stroke-linejoin="round"></path>
                        <path d="M344.875,374.624 L344.875,337.013 C344.875,334.796 343.079,333 340.863,333 L280.33,333 C278.114,333 276.318,334.796 276.318,337.013 L276.318,519.783 C276.318,523.273 273.489,526.102 270,526.102" id="Stroke-239" stroke-linecap="round" stroke-linejoin="round"></path>
                        <path d="M337.757,338 L283.007,338 C281.899,338 281,338.898 281,340.006 L281,374.727 L339.764,374.727 L339.764,340.006 C339.764,338.898 338.865,338 337.757,338 Z" id="Stroke-241"></path>
                        <path d="M286.877,374.362 L348.598,374.362 C349.152,374.362 349.601,374.811 349.601,375.365 L349.601,376.063 C349.601,378.279 347.805,380.075 345.589,380.075 L85.989,380.024 C38.495,380.011 0,341.506 0,294.012 C0,246.509 38.509,208 86.013,208 L340.692,208 C342.908,208 344.704,209.797 344.704,212.012 L344.704,249.624 L276.148,249.624 L276.148,0" id="Stroke-243" stroke-linecap="round" stroke-linejoin="round"></path>
                        <path d="M317.691,375 L317.691,375.257 C317.691,376.18 316.942,376.928 316.019,376.928 L304.671,376.928 C303.749,376.928 303,376.18 303,375.257 L303,375" id="Stroke-245" stroke-linecap="round" stroke-linejoin="round"></path>
                        <path d="M403.913,143.484 L472.47,143.484 L472.47,105.872 C472.47,103.656 470.674,101.86 468.457,101.86 L246.352,101.86 C242.844,101.86 240,99.016 240,95.508 L240,22" id="Stroke-297" stroke-linecap="round" stroke-linejoin="round"></path>
                    </g>
                    <g id="Page-1-Copy">
                        <path d="M638,345 L650.768,345" id="Stroke-1" stroke-linecap="round"></path>
                        <path d="M643,349 L655.767,349" id="Stroke-3" stroke-linecap="round"></path>
                        <path d="M643,353 L655.767,353" id="Stroke-5" stroke-linecap="round"></path>
                        <path d="M647,357 L659.767,357" id="Stroke-7" stroke-linecap="round"></path>
                        <path d="M647,360 L659.767,360" id="Stroke-9" stroke-linecap="round"></path>
                        <path d="M638,364 L650.768,364" id="Stroke-11" stroke-linecap="round"></path>
                        <path d="M638,368 L650.768,368" id="Stroke-13" stroke-linecap="round"></path>
                        <path d="M670.545,270 L610.013,270 C607.797,270 606,271.796 606,274.012 L606,311.624 L674.558,311.624 L674.558,274.012 C674.558,271.796 672.761,270 670.545,270 Z" id="Stroke-153" stroke-linecap="round" stroke-linejoin="round"></path>
                        <path d="M667.757,275 L613.006,275 C611.899,275 611,275.898 611,277.006 L611,311.727 L669.763,311.727 L669.763,277.006 C669.763,275.898 668.864,275 667.757,275 Z" id="Stroke-155"></path>
                        <path d="M678.348,312 L602.003,312 C601.45,312 601,312.449 601,313.003 L601,313.701 C601,315.917 602.796,317.713 605.013,317.713 L675.338,317.713 C677.555,317.713 679.351,315.917 679.351,313.701 L679.351,313.003 C679.351,312.449 678.902,312 678.348,312 Z" id="Stroke-157" stroke-linecap="round" stroke-linejoin="round"></path>
                        <path d="M647.69,312 L647.69,312.257 C647.69,313.18 646.942,313.929 646.018,313.929 L634.671,313.929 C633.748,313.929 633,313.18 633,312.257 L633,312" id="Stroke-159" stroke-linecap="round" stroke-linejoin="round"></path>
                        <path d="M678.78,144 L495.004,144 C494.449,144 494,144.449 494,145.003 L494,145.701 C494,147.917 495.797,149.713 498.012,149.713 L660.132,149.713" id="Stroke-185" stroke-linecap="round" stroke-linejoin="round"></path>
                        <path d="M677.53,208.237 L629.977,208.237 C627.761,208.237 625.965,210.033 625.965,212.249 L625.965,249.861 L694.521,249.861 L694.521,84.859 L694.521,22.224 C694.521,9.95 684.572,0 674.045,0 L527.97,0 C513.95,0 504,9.95 504,22.224 L504,144.018 L562.763,144.018 L562.763,109.297 C562.763,108.189 561.865,107.291 560.757,107.291" id="Stroke-203" stroke-linecap="round" stroke-linejoin="round"></path>
                        <path d="M672.127,212.571 L633.006,212.571 C631.898,212.571 631,213.469 631,214.577 L631,249.298 L689.763,249.298 L689.763,113.211 C689.763,107.019 694.782,102 700.974,102 L820.203,102" id="Stroke-205" stroke-linecap="round"></path>
                        <path d="M717.433,250 L622.003,250 C621.45,250 621,250.449 621,251.003 L621,251.701 C621,253.917 622.796,255.713 625.012,255.713 L865.118,255.713" id="Stroke-207" stroke-linecap="round" stroke-linejoin="round"></path>
                        <path d="M667.69,250 L667.69,250.257 C667.69,251.18 666.941,251.929 666.018,251.929 L654.67,251.929 C653.748,251.929 653,251.18 653,250.257 L653,250" id="Stroke-209" stroke-linecap="round" stroke-linejoin="round"></path>
                        <path d="M690.545,333 L630.013,333 C627.797,333 626,334.796 626,337.012 L626,374.624 L694.557,374.624 L694.557,337.012 C694.557,334.796 692.761,333 690.545,333 Z" id="Stroke-247" stroke-linecap="round" stroke-linejoin="round"></path>
                        <path d="M687.757,338 L633.006,338 C631.898,338 631,338.898 631,340.006 L631,374.727 L689.763,374.727 L689.763,340.006 C689.763,338.898 688.864,338 687.757,338 Z" id="Stroke-249"></path>
                        <path d="M883.944,375 L622.003,375 C621.449,375 621,375.449 621,376.003 L621,376.701 C621,378.917 622.796,380.713 625.896,380.713 L879.632,380.713" id="Stroke-251" stroke-linecap="round" stroke-linejoin="round"></path>
                        <path d="M667.69,375 L667.69,375.257 C667.69,376.18 666.941,376.928 666.018,376.928 L654.67,376.928 C653.748,376.928 653,376.18 653,375.257 L653,375" id="Stroke-253" stroke-linecap="round" stroke-linejoin="round"></path>
                        <path d="M638,220 L650.768,220" id="Stroke-269" stroke-linecap="round"></path>
                        <path d="M643,224 L655.767,224" id="Stroke-271" stroke-linecap="round"></path>
                        <path d="M643,228 L655.767,228" id="Stroke-273" stroke-linecap="round"></path>
                        <path d="M647,231 L659.767,231" id="Stroke-275" stroke-linecap="round"></path>
                        <path d="M647,235 L659.767,235" id="Stroke-277" stroke-linecap="round"></path>
                        <path d="M638,239 L650.768,239" id="Stroke-279" stroke-linecap="round"></path>
                        <path d="M638,243 L650.768,243" id="Stroke-281" stroke-linecap="round"></path>
                    </g>
                </g>
            </g>
        </g>
    </g>
</svg>
